<svg width="16" height="16" viewBox="0 0 16 16" fill="none" xmlns="http://www.w3.org/2000/svg">
<path d="M15.3 6.13036C15.3 5.85421 15.0762 5.63036 14.8 5.63036H13.6437C13.3675 5.63036 13.1437 5.4065 13.1437 5.13036V3.6759C13.1437 3.5377 13.0865 3.40566 12.9856 3.31114L9.59804 0.135233C9.50537 0.048351 9.3831 0 9.25607 0H1.19922C0.923077 0 0.699219 0.223858 0.699219 0.5V15.5C0.699219 15.7761 0.923076 16 1.19922 16H12.6437C12.9198 16 13.1437 15.7761 13.1437 15.5V14.2516C13.1437 13.9754 13.3675 13.7516 13.6437 13.7516H14.8C15.0762 13.7516 15.3 13.5277 15.3 13.2516V6.13036ZM13.9667 11.9182C13.9667 12.1944 13.7428 12.4182 13.4667 12.4182H5.13335C4.85721 12.4182 4.63335 12.1944 4.63335 11.9182V7.46369C4.63335 7.18755 4.85721 6.96369 5.13335 6.96369H13.4667C13.7428 6.96369 13.9667 7.18755 13.9667 7.46369V11.9182Z" fill="#7D7D7E"/>
</svg>
