<svg width="16" height="16" viewBox="0 0 16 16" fill="none" xmlns="http://www.w3.org/2000/svg">
<path d="M7.50866 0.18971C7.26491 0.230334 6.89304 0.361585 6.65866 0.486585C6.44304 0.599085 6.31179 0.699084 5.92741 1.03346C5.47741 1.42408 5.08054 1.57721 4.39304 1.62408C3.92429 1.65533 3.90554 1.65846 3.59616 1.75533C2.46179 2.11471 1.63366 3.21471 1.62741 4.37096C1.62429 4.80221 1.50241 5.24596 1.28366 5.60221C1.23054 5.69283 1.07429 5.89283 0.933664 6.04596C0.639914 6.37721 0.474289 6.63971 0.346164 6.99283C0.108664 7.64596 0.102414 8.33033 0.333664 8.97408C0.474289 9.36783 0.624289 9.60221 1.03679 10.0741C1.40554 10.496 1.58366 10.9303 1.61491 11.4803C1.64929 12.1116 1.73679 12.4647 1.97429 12.9022C2.23054 13.3803 2.61804 13.7678 3.09616 14.0272C3.53054 14.2616 3.81179 14.3366 4.39304 14.3741C5.08054 14.4178 5.47741 14.571 5.92741 14.9647C6.33991 15.3241 6.44929 15.4022 6.73679 15.546C7.20554 15.7772 7.43366 15.8272 8.01804 15.8241C8.47116 15.8241 8.54616 15.8147 8.79929 15.7366C9.28054 15.5897 9.53679 15.4366 10.0774 14.9647C10.5274 14.571 10.9243 14.4178 11.6118 14.3741C12.193 14.3366 12.4743 14.2616 12.9087 14.0272C13.3868 13.7678 13.7743 13.3803 14.0305 12.9022C14.268 12.4647 14.3555 12.1116 14.3899 11.4803C14.4212 10.9303 14.5993 10.496 14.968 10.0741C15.3805 9.60221 15.5305 9.36783 15.6712 8.97408C15.8962 8.34283 15.8962 7.65846 15.6712 7.02408C15.5305 6.63033 15.3868 6.40221 14.968 5.92408C14.5993 5.50221 14.4212 5.06783 14.3899 4.51783C14.368 4.10533 14.3274 3.84283 14.2462 3.59283C14.0212 2.89596 13.5399 2.31158 12.9087 1.97096C12.4743 1.73658 12.193 1.66158 11.6118 1.62408C10.9243 1.58033 10.5274 1.42721 10.0774 1.03346C9.53366 0.561584 9.27741 0.405334 8.79929 0.264709C8.57116 0.195959 8.43991 0.17721 8.09616 0.170959C7.86491 0.164709 7.59929 0.170959 7.50866 0.18971Z" fill="#7D7D7E"/>
</svg>
