<svg width="16" height="16" viewBox="0 0 16 16" fill="none" xmlns="http://www.w3.org/2000/svg">
<path d="M9.42906 0C5.81712 0 2.88465 2.92922 2.88465 6.54441C2.88465 7.51648 3.09597 8.43979 3.47635 9.26881L1.04129 11.3983C-0.733796 13.2254 0.264284 14.8151 0.73569 15.2866C1.17458 15.7612 2.81313 16.7658 4.62397 14.9809L6.76968 12.5231C7.58245 12.884 8.47975 13.0856 9.42581 13.0856C13.041 13.0856 15.9702 10.1564 15.9702 6.54116C15.9702 2.92597 13.0443 0 9.42906 0ZM9.42906 11.7201C6.57137 11.7201 4.25335 9.40211 4.25335 6.54441C4.25335 3.68672 6.57137 1.3687 9.42906 1.3687C12.2868 1.3687 14.6048 3.68672 14.6048 6.54441C14.6048 9.40211 12.29 11.7201 9.42906 11.7201Z" fill="#7D7D7E"/>
</svg>
